ffmpeg version 6.0-essentials_build-www.gyan.dev Copyright (c) 2000-2023 the FFmpeg developers
  built with gcc 12.2.0 (Rev10, Built by MSYS2 project)
  configuration: --enable-gpl --enable-version3 --enable-static --disable-w32threads --disable-autodetect --enable-fontconfig --enable-iconv --enable-gnutls --enable-libxml2 --enable-gmp --enable-lzma --enable-zlib --enable-libsrt --enable-libssh --enable-libzmq --enable-avisynth --enable-sdl2 --enable-libwebp --enable-libx264 --enable-libx265 --enable-libxvid --enable-libaom --enable-libopenjpeg --enable-libvpx --enable-libass --enable-libfreetype --enable-libfribidi --enable-libvidstab --enable-libvmaf --enable-libzimg --enable-amf --enable-cuda-llvm --enable-cuvid --enable-ffnvcodec --enable-nvdec --enable-nvenc --enable-d3d11va --enable-dxva2 --enable-libmfx --enable-libgme --enable-libopenmpt --enable-libopencore-amrwb --enable-libmp3lame --enable-libtheora --enable-libvo-amrwbenc --enable-libgsm --enable-libopencore-amrnb --enable-libopus --enable-libspeex --enable-libvorbis --enable-librubberband
  libavutil      58.  2.100 / 58.  2.100
  libavcodec     60.  3.100 / 60.  3.100
  libavformat    60.  3.100 / 60.  3.100
  libavdevice    60.  1.100 / 60.  1.100
  libavfilter     9.  3.100 /  9.  3.100
  libswscale      7.  1.100 /  7.  1.100
  libswresample   4. 10.100 /  4. 10.100
  libpostproc    57.  1.100 / 57.  1.100
ffmpeg stats and -progress period set to 10.
Guessed Channel Layout for Input Stream #0.0 : stereo
Input #0, dshow, from 'audio=Mixage stéréo (Realtek(R) Audio)':
  Duration: N/A, start: 318967.162000, bitrate: 1411 kb/s
  Stream #0:0: Audio: pcm_s16le, 44100 Hz, 2 channels, s16, 1411 kb/s
Stream mapping:
  Stream #0:0 -> #0:0 (pcm_s16le (native) -> opus (libopus))
Press [q] to stop, [?] for help
[libopus @ 0000021bfb5c8c40] No bit rate set. Defaulting to 96000 bps.
Output #0, rtp, to 'rtp://127.0.0.1:5005':
  Metadata:
    encoder         : Lavf60.3.100
  Stream #0:0: Audio: opus, 48000 Hz, stereo, s16, 96 kb/s
    Metadata:
      encoder         : Lavc60.3.100 libopus
SDP:
v=0
o=- 0 0 IN IP4 127.0.0.1
s=No Name
c=IN IP4 127.0.0.1
t=0 0
a=tool:libavformat 60.3.100
m=audio 5005 RTP/AVP 97
b=AS:96
a=rtpmap:97 opus/48000/2
a=fmtp:97 sprop-stereo=1

size=       5kB time=00:00:00.45 bitrate=  93.0kbits/s speed=N/A    [libopus @ 0000021bfb5c8c40] Queue input is backward in time
size=     141kB time=00:00:11.46 bitrate= 100.6kbits/s speed=1.09x    size=     264kB time=00:00:21.46 bitrate= 100.7kbits/s speed=1.05x    size=     387kB time=00:00:31.46 bitrate= 100.7kbits/s speed=1.03x    size=     516kB time=00:00:41.96 bitrate= 100.8kbits/s speed=1.02x    size=     639kB time=00:00:51.96 bitrate= 100.8kbits/s speed=1.02x    size=     762kB time=00:01:01.97 bitrate= 100.8kbits/s speed=1.02x    size=     892kB time=00:01:12.47 bitrate= 100.8kbits/s speed=1.01x    size=    1021kB time=00:01:22.97 bitrate= 100.8kbits/s speed=1.01x    size=    1144kB time=00:01:32.96 bitrate= 100.8kbits/s speed=1.01x    size=    1273kB time=00:01:43.46 bitrate= 100.8kbits/s speed=1.01x    size=    1403kB time=00:01:53.96 bitrate= 100.8kbits/s speed=1.01x    size=    1532kB time=00:02:04.47 bitrate= 100.8kbits/s speed=1.01x    size=    1661kB time=00:02:14.96 bitrate= 100.8kbits/s speed=1.01x    size=    1784kB time=00:02:24.96 bitrate= 100.8kbits/s speed=1.01x    size=    1913kB time=00:02:35.46 bitrate= 100.8kbits/s speed=1.01x    size=    2037kB time=00:02:45.46 bitrate= 100.8kbits/s speed=1.01x    size=    2166kB time=00:02:55.96 bitrate= 100.8kbits/s speed=1.01x    size=    2289kB time=00:03:05.96 bitrate= 100.8kbits/s speed=1.01x    size=    2418kB time=00:03:16.46 bitrate= 100.8kbits/s speed=   1x    size=    2541kB time=00:03:26.47 bitrate= 100.8kbits/s speed=   1x    size=    2671kB time=00:03:36.96 bitrate= 100.8kbits/s speed=   1x    size=    2794kB time=00:03:46.97 bitrate= 100.8kbits/s speed=   1x    size=    2922kB time=00:03:57.47 bitrate= 100.8kbits/s speed=   1x    size=    3052kB time=00:04:07.96 bitrate= 100.8kbits/s speed=   1x    size=    3181kB time=00:04:18.46 bitrate= 100.8kbits/s speed=   1x    size=    3304kB time=00:04:28.46 bitrate= 100.8kbits/s speed=   1x    size=    3434kB time=00:04:38.96 bitrate= 100.8kbits/s speed=   1x    size=    3563kB time=00:04:49.46 bitrate= 100.8kbits/s speed=   1x    size=    3686kB time=00:04:59.46 bitrate= 100.8kbits/s speed=   1x    size=    3815kB time=00:05:09.96 bitrate= 100.8kbits/s speed=   1x    size=    3945kB time=00:05:20.46 bitrate= 100.8kbits/s speed=   1x    size=    4067kB time=00:05:30.46 bitrate= 100.8kbits/s speed=   1x    size=    4191kB time=00:05:40.46 bitrate= 100.8kbits/s speed=   1x    size=    4314kB time=00:05:50.46 bitrate= 100.8kbits/s speed=   1x    size=    4443kB time=00:06:00.96 bitrate= 100.8kbits/s speed=   1x    size=    4566kB time=00:06:10.96 bitrate= 100.8kbits/s speed=   1x    size=    4689kB time=00:06:20.96 bitrate= 100.8kbits/s speed=   1x    size=    4819kB time=00:06:31.46 bitrate= 100.8kbits/s speed=   1x    size=    4948kB time=00:06:41.96 bitrate= 100.8kbits/s speed=   1x    size=    5071kB time=00:06:51.96 bitrate= 100.8kbits/s speed=   1x    size=    5200kB time=00:07:02.46 bitrate= 100.8kbits/s speed=   1x    size=    5329kB time=00:07:12.96 bitrate= 100.8kbits/s speed=   1x    size=    5453kB time=00:07:22.96 bitrate= 100.8kbits/s speed=   1x    size=    5582kB time=00:07:33.46 bitrate= 100.8kbits/s speed=   1x    size=    5705kB time=00:07:43.46 bitrate= 100.8kbits/s speed=   1x    size=    5834kB time=00:07:53.96 bitrate= 100.8kbits/s speed=   1x    size=    5962kB time=00:08:04.46 bitrate= 100.8kbits/s speed=   1x    size=    6087kB time=00:08:14.46 bitrate= 100.8kbits/s speed=   1x    size=    6216kB time=00:08:24.96 bitrate= 100.8kbits/s speed=   1x    size=    6337kB time=00:08:34.96 bitrate= 100.8kbits/s speed=   1x    size=    6461kB time=00:08:44.96 bitrate= 100.8kbits/s speed=   1x    size=    6585kB time=00:08:54.96 bitrate= 100.8kbits/s speed=   1x    size=    6714kB time=00:09:05.46 bitrate= 100.8kbits/s speed=   1x    size=    6837kB time=00:09:15.46 bitrate= 100.8kbits/s speed=   1x    size=    6967kB time=00:09:25.96 bitrate= 100.8kbits/s speed=   1x    size=    7096kB time=00:09:36.46 bitrate= 100.8kbits/s speed=   1x    size=    7219kB time=00:09:46.46 bitrate= 100.8kbits/s speed=   1x    size=    7342kB time=00:09:56.46 bitrate= 100.8kbits/s speed=   1x    size=    7471kB time=00:10:06.96 bitrate= 100.8kbits/s speed=   1x    size=    7595kB time=00:10:16.96 bitrate= 100.8kbits/s speed=   1x    size=    7724kB time=00:10:27.46 bitrate= 100.8kbits/s speed=   1x    size=    7853kB time=00:10:37.96 bitrate= 100.8kbits/s speed=   1x    size=    7976kB time=00:10:47.96 bitrate= 100.8kbits/s speed=   1x    size=    8105kB time=00:10:58.46 bitrate= 100.8kbits/s speed=   1x    size=    8235kB time=00:11:08.96 bitrate= 100.8kbits/s speed=   1x    size=    8364kB time=00:11:19.46 bitrate= 100.8kbits/s speed=   1x    size=    8487kB time=00:11:29.46 bitrate= 100.8kbits/s speed=   1x    size=    8616kB time=00:11:39.96 bitrate= 100.8kbits/s speed=   1x    size=    8746kB time=00:11:50.46 bitrate= 100.8kbits/s speed=   1x    size=    8869kB time=00:12:00.46 bitrate= 100.8kbits/s speed=   1x    size=    8998kB time=00:12:10.96 bitrate= 100.8kbits/s speed=   1x    size=    9121kB time=00:12:20.96 bitrate= 100.8kbits/s speed=   1x    size=    9250kB time=00:12:31.46 bitrate= 100.8kbits/s speed=   1x    size=    9379kB time=00:12:41.96 bitrate= 100.8kbits/s speed=   1x    size=    9503kB time=00:12:51.96 bitrate= 100.8kbits/s speed=   1x    size=    9632kB time=00:13:02.46 bitrate= 100.8kbits/s speed=   1x    size=    9761kB time=00:13:12.96 bitrate= 100.8kbits/s speed=   1x    size=    9890kB time=00:13:23.46 bitrate= 100.8kbits/s speed=   1x    size=   10013kB time=00:13:33.46 bitrate= 100.8kbits/s speed=   1x    size=   10143kB time=00:13:43.96 bitrate= 100.8kbits/s speed=   1x    size=   10266kB time=00:13:53.96 bitrate= 100.8kbits/s speed=   1x    size=   10395kB time=00:14:04.46 bitrate= 100.8kbits/s speed=   1x    size=   10524kB time=00:14:14.96 bitrate= 100.8kbits/s speed=   1x    size=   10654kB time=00:14:25.46 bitrate= 100.8kbits/s speed=   1x    size=   10777kB time=00:14:35.46 bitrate= 100.8kbits/s speed=   1x    size=   10906kB time=00:14:45.96 bitrate= 100.8kbits/s speed=   1x    size=   11035kB time=00:14:56.46 bitrate= 100.8kbits/s speed=   1x    size=   11158kB time=00:15:06.46 bitrate= 100.8kbits/s speed=   1x    size=   11286kB time=00:15:16.96 bitrate= 100.8kbits/s speed=   1x    size=   11417kB time=00:15:27.46 bitrate= 100.8kbits/s speed=   1x    size=   11546kB time=00:15:37.96 bitrate= 100.8kbits/s speed=   1x    size=   11675kB time=00:15:48.46 bitrate= 100.8kbits/s speed=   1x    size=   11798kB time=00:15:58.46 bitrate= 100.8kbits/s speed=   1x    size=   11928kB time=00:16:08.96 bitrate= 100.8kbits/s speed=   1x    size=   12051kB time=00:16:18.96 bitrate= 100.8kbits/s speed=   1x    size=   12180kB time=00:16:29.46 bitrate= 100.8kbits/s speed=   1x    size=   12309kB time=00:16:39.96 bitrate= 100.8kbits/s speed=   1x    size=   12439kB time=00:16:50.46 bitrate= 100.8kbits/s speed=   1x    size=   12568kB time=00:17:00.96 bitrate= 100.8kbits/s speed=   1x    size=   12691kB time=00:17:10.96 bitrate= 100.8kbits/s speed=   1x    size=   12820kB time=00:17:21.46 bitrate= 100.8kbits/s speed=   1x    size=   12942kB time=00:17:31.46 bitrate= 100.8kbits/s speed=   1x    size=   13072kB time=00:17:41.96 bitrate= 100.8kbits/s speed=   1x    size=   13202kB time=00:17:52.46 bitrate= 100.8kbits/s speed=   1x    size=   13325kB time=00:18:02.46 bitrate= 100.8kbits/s speed=   1x    size=   13448kB time=00:18:12.46 bitrate= 100.8kbits/s speed=   1x    size=   13571kB time=00:18:22.46 bitrate= 100.8kbits/s speed=   1x    size=   13692kB time=00:18:32.46 bitrate= 100.8kbits/s speed=   1x    size=   13823kB time=00:18:42.96 bitrate= 100.8kbits/s speed=   1x    size=   13953kB time=00:18:53.46 bitrate= 100.8kbits/s speed=   1x    size=   14082kB time=00:19:03.96 bitrate= 100.8kbits/s speed=   1x    size=   14211kB time=00:19:14.46 bitrate= 100.8kbits/s speed=   1x    size=   14340kB time=00:19:24.96 bitrate= 100.8kbits/s speed=   1x    size=   14464kB time=00:19:34.96 bitrate= 100.8kbits/s speed=   1x    size=   14593kB time=00:19:45.46 bitrate= 100.8kbits/s speed=   1x    size=   14716kB time=00:19:55.46 bitrate= 100.8kbits/s speed=   1x    size=   14845kB time=00:20:05.96 bitrate= 100.8kbits/s speed=   1x    size=   14974kB time=00:20:16.46 bitrate= 100.8kbits/s speed=   1x    size=   15097kB time=00:20:26.46 bitrate= 100.8kbits/s speed=   1x    size=   15225kB time=00:20:36.96 bitrate= 100.8kbits/s speed=   1x    size=   15356kB time=00:20:47.46 bitrate= 100.8kbits/s speed=   1x    size=   15477kB time=00:20:57.46 bitrate= 100.8kbits/s speed=   1x    size=   15608kB time=00:21:07.96 bitrate= 100.8kbits/s speed=   1x    size=   15738kB time=00:21:18.46 bitrate= 100.8kbits/s speed=   1x    [libopus @ 0000021bfb5c8c40] Queue input is backward in time
size=   15867kB time=00:21:28.96 bitrate= 100.8kbits/s speed=   1x    size=   15990kB time=00:21:38.96 bitrate= 100.8kbits/s speed=   1x    size=   16119kB time=00:21:49.46 bitrate= 100.8kbits/s speed=   1x    size=   16248kB time=00:21:59.96 bitrate= 100.8kbits/s speed=   1x    size=   16378kB time=00:22:10.46 bitrate= 100.8kbits/s speed=   1x    size=   16501kB time=00:22:20.46 bitrate= 100.8kbits/s speed=   1x    size=   16630kB time=00:22:30.96 bitrate= 100.8kbits/s speed=   1x    size=   16753kB time=00:22:40.96 bitrate= 100.8kbits/s speed=   1x    size=   16882kB time=00:22:51.46 bitrate= 100.8kbits/s speed=   1x    size=   17012kB time=00:23:01.96 bitrate= 100.8kbits/s speed=   1x    size=   17141kB time=00:23:12.46 bitrate= 100.8kbits/s speed=   1x    size=   17270kB time=00:23:22.96 bitrate= 100.8kbits/s speed=   1x    size=   17399kB time=00:23:33.46 bitrate= 100.8kbits/s speed=   1x    size=   17529kB time=00:23:43.96 bitrate= 100.8kbits/s speed=   1x    